<?xml version="1.0" encoding="UTF-8" standalone="no"?>
<!-- Created with Inkscape (http://www.inkscape.org/) -->

<svg
   width="750.70099"
   height="540.52002"
   viewBox="0 0 198.62311 143.01349"
   version="1.1"
   id="svg5"
   xml:space="preserve"
   inkscape:version="1.2.1 (9c6d41e410, 2022-07-14)"
   sodipodi:docname="drawing-1.svg"
   inkscape:export-filename="drawing-1.png"
   inkscape:export-xdpi="96"
   inkscape:export-ydpi="96"
   xmlns:inkscape="http://www.inkscape.org/namespaces/inkscape"
   xmlns:sodipodi="http://sodipodi.sourceforge.net/DTD/sodipodi-0.dtd"
   xmlns="http://www.w3.org/2000/svg"
   xmlns:svg="http://www.w3.org/2000/svg"><sodipodi:namedview
     id="namedview7"
     pagecolor="#ffffff"
     bordercolor="#000000"
     borderopacity="0.25"
     inkscape:showpageshadow="2"
     inkscape:pageopacity="0.0"
     inkscape:pagecheckerboard="0"
     inkscape:deskcolor="#d1d1d1"
     inkscape:document-units="mm"
     showgrid="false"
     inkscape:zoom="0.75722503"
     inkscape:cx="148.56878"
     inkscape:cy="539.46975"
     inkscape:window-width="1920"
     inkscape:window-height="1011"
     inkscape:window-x="-9"
     inkscape:window-y="-9"
     inkscape:window-maximized="1"
     inkscape:current-layer="layer1" /><defs
     id="defs2" /><g
     inkscape:label="Layer 1"
     inkscape:groupmode="layer"
     id="layer1"><path
       style="fill:#000000;stroke-width:0.73862"
       d="m 36.764703,123.84805 c 0.363454,-0.3669 0.0092,-0.82263 -0.787291,-1.01271 -0.829234,-0.19792 -1.203574,-0.0995 -0.875915,0.23021 0.31471,0.3167 -0.08485,0.57583 -0.887924,0.57583 -0.803069,0 -1.460126,-0.27135 -1.460126,-0.60299 0,-0.41567 -0.562807,-0.41567 -1.811564,0 -3.181427,1.05897 -4.152829,0.72598 -2.489114,-0.85327 0.905218,-0.85927 1.114649,-1.45628 0.510859,-1.45628 -0.562813,0 -0.88862,-0.58979 -0.724016,-1.31065 0.164604,-0.72085 0.668634,-1.2286 1.120066,-1.12832 0.451431,0.10029 1.294341,-0.40328 1.873135,-1.11901 0.578793,-0.71575 1.545379,-1.40242 2.14797,-1.52595 1.336871,-0.27406 1.064109,1.35237 -0.377131,2.24877 -1.577584,0.9812 2.704222,3.43739 5.265949,3.02074 1.087013,-0.17681 1.982841,-0.61855 1.990729,-0.98166 0.0079,-0.36311 0.401533,-0.27952 0.87477,0.18576 0.473235,0.46526 0.605378,1.10263 0.293649,1.41633 -0.311728,0.31371 0.942532,-0.14562 2.787245,-1.02075 2.430438,-1.15298 3.547774,-1.39613 4.057639,-0.88304 0.867749,0.87327 -4.220386,3.55291 -5.96944,3.14377 -0.67088,-0.15693 -2.340402,0.17044 -3.710048,0.7275 -1.369646,0.55705 -2.192896,0.71262 -1.829442,0.34572 z m 3.956199,-0.2 c -0.328116,-0.33019 0.04782,-0.42784 0.881294,-0.22893 1.622526,0.38726 1.919389,0.80478 0.5722,0.80478 -0.484712,0 -1.138784,-0.25913 -1.453494,-0.57585 z m 100.469638,-0.26203 c -2.98027,-0.96166 -10.23166,-1.79062 -8.22437,-0.94018 1.24875,0.52906 1.24875,0.59164 0,0.56318 -0.77266,-0.0176 -2.18962,-0.22394 -3.14878,-0.45848 -1.31535,-0.32165 -0.56998,-0.595 3.0329,-1.11225 5.05763,-0.7261 9.48155,-0.19412 9.48155,1.14016 0,0.55489 0.24976,0.55809 1.12389,0.0144 0.61814,-0.38446 1.71648,-0.69902 2.44077,-0.69902 0.72429,0 2.14546,-0.65515 3.15816,-1.45589 1.63636,-1.29386 1.99759,-1.35869 3.24554,-0.58252 1.61528,1.00465 2.17543,1.05241 3.98499,0.3398 0.87596,-0.34496 1.94754,-0.14614 3.23583,0.60035 1.90523,1.10398 1.94954,1.09919 4.07559,-0.43969 2.47066,-1.78831 2.56031,-2.05105 1.02554,-3.00562 -0.61813,-0.38446 -0.7235,-0.70302 -0.23414,-0.70793 0.48936,-0.005 0.25756,-0.28113 -0.51511,-0.61383 -1.15917,-0.49911 -1.07727,-0.57308 0.46829,-0.42297 1.25536,0.12191 1.97138,0.71184 2.17101,1.78871 0.16383,0.88374 0.69065,1.45583 1.17071,1.27129 1.39403,-0.53585 1.01252,-2.08806 -0.76617,-3.1172 -3.12392,-1.80748 -3.87222,-3.19876 -2.23175,-4.14928 0.82029,-0.47528 1.86633,-0.78819 2.32457,-0.69534 0.45823,0.0928 0.64511,-0.62802 0.4153,-1.6019 -0.22981,-0.97387 -0.10953,-1.77068 0.2674,-1.77068 0.37688,0 0.4786,-1.11405 0.22604,-2.47566 l -0.45918,-2.47567 1.55622,1.74753 c 1.33469,1.49874 1.40421,2.23016 0.4883,5.13771 -0.58737,1.8646 -0.83379,4.0927 -0.5476,4.95133 1.09114,3.27368 1.29681,5.92888 0.48349,6.24151 -0.47681,0.18328 -0.35879,0.80963 0.27064,1.4365 1.44515,1.43925 0.46996,2.01696 -2.01078,1.1912 -1.29763,-0.43193 -1.95335,-0.44777 -1.95335,-0.0471 0,0.33166 -0.65707,0.60301 -1.46013,0.60301 -0.80307,0 -1.20263,-0.25913 -0.88793,-0.57584 0.32813,-0.33021 -0.0478,-0.42786 -0.88129,-0.22894 -0.79942,0.19081 -1.45349,0.0809 -1.45349,-0.24437 0,-0.35386 -1.90011,-0.21335 -4.7321,0.34992 -3.94284,0.78422 -5.05724,0.81491 -6.6815,0.18402 -1.11862,-0.4345 -2.19525,-0.53002 -2.52629,-0.22413 -1.10251,1.01872 -3.63525,1.22533 -5.93277,0.48398 z m 11.44355,-1.12958 c 0,-0.12097 -0.59466,-0.52688 -1.32147,-0.90205 -1.01188,-0.52232 -1.48461,-0.51795 -2.01784,0.0187 -0.42566,0.42837 -0.3012,0.54889 0.32018,0.31005 0.55912,-0.21493 1.28129,-0.12437 1.60483,0.20124 0.57899,0.58267 1.4143,0.80242 1.4143,0.37208 z m 14.16474,-9.25556 c -0.92498,-0.57101 -1.03256,-0.5041 -0.5243,0.32609 0.35171,0.57448 0.8754,0.89777 1.16376,0.71843 0.28836,-0.17935 6e-4,-0.64938 -0.63946,-1.04452 z m -120.465153,9.20229 c 2.979629,-1.51907 4.214554,-1.80028 4.214554,-0.95973 0,0.96107 5.006959,1.1277 7.187237,0.23917 1.815304,-0.73977 2.886837,-0.76427 6.944906,-0.15878 3.312103,0.49419 4.404937,0.87103 3.528106,1.21658 -0.698674,0.27534 -1.9025,0.50063 -2.675167,0.50063 -1.248757,0 -1.248757,-0.0661 0,-0.5952 1.706572,-0.72303 -5.196566,-0.10188 -7.665112,0.68971 -2.181078,0.69942 -6.383402,0.63544 -6.383402,-0.0971 0,-0.41567 -0.562807,-0.41567 -1.811565,0 -0.996359,0.33164 -2.787545,0.60168 -3.980412,0.6001 -2.094505,-0.003 -2.072538,-0.052 0.640855,-1.43532 z m 23.745028,0.70818 c 0.471886,-0.29348 1.854858,-0.43608 3.073271,-0.31687 1.874709,0.18341 1.742801,0.26546 -0.857974,0.53362 -1.861165,0.19191 -2.734882,0.10642 -2.215297,-0.21675 z m 24.019916,0.31782 c -1.545333,-0.14296 -3.231151,-0.54047 -3.746262,-0.88336 -0.650767,-0.43317 -0.433291,-0.51321 0.712661,-0.26227 0.907086,0.19864 2.866883,0.20968 4.355115,0.0245 2.4614,-0.30618 2.63736,-0.48516 1.94767,-1.98086 -0.80939,-1.7553 0.56944,-2.58765 3.233315,-1.95186 1.03808,0.24776 1.14057,0.66737 0.44208,1.81004 -1.144595,1.87243 -0.84234,2.04273 3.75875,2.11776 2.0642,0.0337 3.45059,0.23259 3.08086,0.44205 -0.93541,0.52995 -10.382275,0.99866 -13.784189,0.68394 z m 30.204299,-0.55608 c 0.64389,-0.16158 1.69753,-0.16158 2.34141,0 0.6439,0.1616 0.11707,0.29381 -1.1707,0.29381 -1.28778,0 -1.8146,-0.13221 -1.17071,-0.29381 z m -96.951592,-6.60433 c 0,-1.12132 0.192741,-1.58005 0.428314,-1.01939 0.235572,0.56067 0.235572,1.47811 0,2.03879 -0.235573,0.56067 -0.428314,0.10194 -0.428314,-1.0194 z m 143.225412,0 c 0,-0.80094 0.21259,-1.1286 0.4724,-0.72813 0.25981,0.40047 0.25981,1.05579 0,1.45627 -0.25981,0.40047 -0.4724,0.0729 -0.4724,-0.72814 z M 29.322115,114.96455 c 0.252021,-0.99459 0.137047,-1.80834 -0.255498,-1.80834 -0.392547,0 -0.671871,-1.70443 -0.620722,-3.78763 0.0991,-4.03599 1.579485,-5.20885 2.156801,-1.70874 0.217004,1.31564 1.25589,2.62084 2.789865,3.50505 1.34426,0.77485 1.961112,1.40882 1.370782,1.40882 -0.590331,0 -1.086572,0.45872 -1.102759,1.01939 -0.01618,0.56067 -1.102066,1.50548 -2.413061,2.09959 l -2.38363,1.0802 z m 0.960317,-3.26461 c 0.296501,-0.48057 0.130864,-0.87376 -0.368082,-0.87376 -0.498945,0 -0.907173,0.39319 -0.907173,0.87376 0,0.48057 0.165637,0.87377 0.368082,0.87377 0.202444,0 0.610672,-0.3932 0.907173,-0.87377 z m 14.880536,2.23552 c -1.528936,-0.38371 -1.731459,-54.370114 -0.203962,-54.370114 0.531711,0 1.347908,-0.58979 1.813769,-1.31065 0.747468,-1.15659 0.853999,-1.06759 0.906388,0.75727 0.03265,1.13734 -0.401133,2.35431 -0.963967,2.70438 -0.740063,0.4603 -0.740063,0.96568 0,1.82573 0.691823,0.80401 1.023333,8.84421 1.023333,24.81919 V 111.9912 h 51.529676 51.529685 l -0.25261,-41.067024 c -0.13894,-22.58686 0.0635,-41.066982 0.44982,-41.066922 0.38633,6e-5 0.76919,9.240172 0.85081,20.533562 0.0997,13.79633 0.37444,18.81334 0.83738,15.29088 0.84973,-6.46529 1.09914,-34.220802 0.31888,-35.485432 -0.51061,-0.82762 -6.01605,-0.90711 -54.086775,-0.78081 l -53.518285,0.14059 51.795715,0.1556 c 33.932885,0.10195 51.597785,0.3548 51.221795,0.73317 -0.36775,0.37009 -18.55366,0.57756 -50.624995,0.57756 H 47.738529 v 9.028912 c 0,8.67568 -0.07415,9.02889 -1.895251,9.02889 -1.83928,0 -1.887683,-0.29675 -1.638994,-10.04829 l 0.256257,-10.048282 h 54.789204 54.789195 l 0.24038,41.876312 c 0.17479,30.450884 -0.0482,42.092554 -0.81711,42.668824 -0.87035,0.65226 -10.44252,0.78435 -54.093005,0.74651 -29.169539,-0.0253 -53.562347,-0.17821 -54.206237,-0.33979 z m 28.581866,-1.21577 -27.84633,-0.16329 -0.0074,-20.470634 c -0.0041,-11.25885 -0.222308,-20.60424 -0.48484,-20.76752 -0.262546,-0.16328 -0.477346,9.00871 -0.477346,20.3822 0,11.373504 0.280971,20.853844 0.624379,21.067434 0.343408,0.21359 13.092434,0.32686 28.331169,0.25172 l 27.706694,-0.13663 z M 45.589792,34.954326 c -0.223233,-0.72086 -0.405879,-0.13107 -0.405879,1.31064 0,1.44171 0.182646,2.0315 0.405879,1.31064 0.223235,-0.72085 0.223235,-1.90043 0,-2.62128 z m -0.01193,-3.775232 c -0.237469,-0.56677 -0.447373,-0.24409 -0.466458,0.71705 -0.01909,0.96115 0.175199,1.424852 0.431746,1.03048 0.256547,-0.39438 0.272164,-1.18077 0.0347,-1.74753 z M 169.56624,112.81642 c 0.045,-0.6786 0.26687,-0.81662 0.56585,-0.35193 0.27054,0.42049 0.23727,0.92292 -0.0739,1.11647 -0.31122,0.19357 -0.53256,-0.15048 -0.4919,-0.76454 z m -139.968757,-10.291 c -0.779826,-1.80986 -0.728217,-3.350084 0.112114,-3.346144 0.386334,0.002 0.765683,1.050344 0.842999,2.330054 0.158742,2.62746 -0.128943,2.93352 -0.955119,1.01609 z m 139.140837,-2.47566 c 0.0191,-0.961154 0.22899,-1.283824 0.46645,-0.717054 0.23746,0.56676 0.22185,1.353144 -0.0348,1.747534 -0.25655,0.39437 -0.45084,-0.0694 -0.43175,-1.03048 z M 30.126327,97.137196 c 0.01909,-0.96113 0.228989,-1.28381 0.466451,-0.71704 0.237459,0.56676 0.221843,1.35315 -0.0347,1.74752 -0.25655,0.39438 -0.450836,-0.0694 -0.431751,-1.03048 z m 137.675423,-0.5825 c 0.0191,-0.96114 0.22899,-1.28382 0.46645,-0.71705 0.23746,0.56676 0.22185,1.35315 -0.0348,1.74753 -0.25655,0.39437 -0.45084,-0.0694 -0.43175,-1.03048 z m -139.657202,-0.0485 c 0.04493,-0.67859 0.266867,-0.81662 0.565844,-0.35193 0.270547,0.4205 0.237274,0.92292 -0.07395,1.11647 -0.311214,0.19357 -0.532572,-0.15048 -0.491904,-0.76454 z m 141.421692,-1.16502 c 0.045,-0.67859 0.26687,-0.81662 0.56585,-0.35193 0.27054,0.42049 0.23727,0.92291 -0.0739,1.11648 -0.31122,0.19356 -0.53256,-0.15048 -0.4919,-0.76455 z M 29.287833,92.185866 c 0,-1.76209 0.175574,-2.48294 0.390164,-1.6019 0.214592,0.88106 0.214592,2.32276 0,3.2038 -0.21459,0.88106 -0.390164,0.1602 -0.390164,-1.6019 z m 139.600347,-3.2038 c -0.002,-2.88342 0.15552,-4.13644 0.35194,-2.78449 0.19642,1.35194 0.19875,3.71111 0.006,5.24258 -0.19356,1.53147 -0.35427,0.42534 -0.35712,-2.45809 z M 27.370228,87.234546 c 0.01042,-1.28152 0.202191,-1.73719 0.426212,-1.0126 0.22402,0.72459 0.215515,1.7731 -0.0189,2.33004 -0.234416,0.55692 -0.417707,-0.036 -0.407312,-1.31744 z m 142.358262,-5.8251 c 0.0103,-1.28152 0.20219,-1.73719 0.42621,-1.01259 0.22403,0.72459 0.21551,1.7731 -0.0189,2.33003 -0.23441,0.55694 -0.41772,-0.0359 -0.40731,-1.31744 z M 28.287896,80.535696 c 0,-1.12134 0.192741,-1.58007 0.428313,-1.01941 0.235572,0.56068 0.235572,1.47812 0,2.03879 -0.235572,0.56067 -0.428313,0.10194 -0.428313,-1.01938 z m 139.030984,-2.09916 c -0.33203,-1.29143 -0.22808,-3.16261 0.23099,-4.15817 1.0299,-2.23348 0.6427,-2.50128 -2.74323,-1.89731 -2.02072,0.36045 -2.80285,0.26372 -3.21053,-0.39706 -0.89906,-1.45722 0.44158,-2.05871 3.73267,-1.6747 l 3.11449,0.3634 -0.89265,-1.913 c -0.49095,-1.05214 -0.60156,-3.09257 -0.24577,-4.53428 0.56687,-2.29705 0.73062,-2.44115 1.32381,-1.16502 0.37231,0.80096 0.71895,2.64896 0.77029,4.1067 0.0513,1.45773 0.59911,2.96497 1.21723,3.34943 0.87413,0.54367 0.87413,0.85435 0,1.39801 -0.61812,0.38447 -1.1535,2.02277 -1.1897,3.6407 -0.0362,1.61791 -0.38939,3.45639 -0.78487,4.0855 -0.5762,0.91661 -0.83898,0.67738 -1.32273,-1.2042 z m 0.94007,-2.08764 c -0.29897,-0.46468 -0.5209,-0.32666 -0.56583,0.35194 -0.0406,0.61406 0.18068,0.95811 0.4919,0.76454 0.31121,-0.19357 0.34448,-0.69598 0.0739,-1.11648 z m 0,-11.06767 c -0.29897,-0.46469 -0.5209,-0.32666 -0.56583,0.35193 -0.0406,0.61407 0.18068,0.9581 0.4919,0.76454 0.31121,-0.19356 0.34448,-0.69598 0.0739,-1.11647 z M 29.599688,77.331886 c -0.347234,-1.6019 -1.040574,-3.688 -1.540758,-4.63576 -0.594785,-1.12703 -0.588069,-1.92308 0.01941,-2.30092 0.510859,-0.31772 0.970845,-1.63932 1.022193,-2.93686 0.106769,-2.6981 1.517012,-6.10641 1.69921,-4.1067 0.05838,0.64077 0.377506,1.79581 0.709171,2.56676 0.338625,0.78713 0.230356,1.25947 -0.24693,1.07725 -0.467476,-0.17846 -0.881578,0.56693 -0.920224,1.65645 -0.07628,2.15032 0.193101,2.25524 3.675884,1.43167 1.842592,-0.43572 2.447056,-0.3477 2.924273,0.42577 0.330861,0.53626 0.153363,1.06794 -0.394439,1.18151 -0.547799,0.11358 -0.774515,0.42938 -0.503811,0.70181 0.270705,0.27243 -0.748584,0.274 -2.265084,0.004 -3.475497,-0.61995 -3.837914,-0.37634 -2.851256,1.91663 0.438742,1.01964 0.461559,2.77133 0.0507,3.89266 l -0.747011,2.03879 -0.631333,-2.91255 z m -1.292893,-15.14525 c 0.01042,-1.28151 0.202192,-1.73719 0.426212,-1.0126 0.224021,0.7246 0.215516,1.77311 -0.0189,2.33004 -0.234416,0.55694 -0.417705,-0.036 -0.407312,-1.31744 z m 140.858535,-2.17015 c -0.32632,-1.68983 -0.53599,-4.90734 -0.46592,-7.15 0.10094,-3.22968 0.28455,-2.62829 0.88323,2.89212 0.79476,7.32865 0.58635,9.45522 -0.41731,4.25788 z M 44.174841,56.944056 c 0.01909,-0.96115 0.228989,-1.28382 0.46645,-0.71706 0.23746,0.56677 0.221844,1.35316 -0.0347,1.74753 -0.256552,0.39438 -0.450838,-0.0694 -0.43175,-1.03047 z m -16.772928,-1.74753 c 0.007,-1.60191 0.188919,-2.18809 0.404192,-1.30264 0.215275,0.88545 0.209521,2.1961 -0.01278,2.91255 -0.222306,0.71645 -0.398438,-0.008 -0.391408,-1.60991 z m 18.7044,0.15425 c -0.08673,-0.71611 -0.597872,-1.39328 -1.135873,-1.50481 -1.536017,-0.31845 -1.142999,-2.85428 0.503269,-3.2472 0.814798,-0.19445 1.65771,-0.35358 1.873135,-0.35358 0.215426,0 0.391685,1.44172 0.391685,3.20381 0,3.07296 -1.306065,4.59473 -1.632216,1.90178 z m -17.025197,-2.53283 c 0.04493,-0.67858 0.266866,-0.81661 0.565843,-0.35193 0.270548,0.4205 0.237274,0.92291 -0.07395,1.11648 -0.311214,0.19355 -0.53257,-0.15049 -0.491904,-0.76455 z m 0.07395,-3.73777 c 0,-0.80094 0.212576,-1.12861 0.472391,-0.72813 0.259816,0.40047 0.259816,1.05579 0,1.45627 -0.259815,0.40047 -0.472391,0.0729 -0.472391,-0.72814 z m 140.411174,-2.08733 c 0.045,-0.67859 0.26687,-0.81661 0.56585,-0.35193 0.27054,0.42049 0.23727,0.92291 -0.0739,1.11647 -0.31122,0.19357 -0.53256,-0.15047 -0.4919,-0.76454 z m -1.78228,-0.53396 c -0.0312,-0.64076 0.29186,-2.21354 0.71805,-3.49506 0.65151,-1.95905 0.77439,-2.0518 0.77178,-0.58251 -0.003,2.04042 -1.40245,5.86889 -1.48983,4.07757 z M 29.277595,39.614396 c -0.70774,-4.68802 -0.831538,-10.339552 -0.226488,-10.339552 0.394501,0 0.48291,-0.5574 0.196466,-1.23868 -0.333183,-0.79244 0.0218,-1.42756 0.985348,-1.76294 1.780077,-0.61958 1.072751,-2.30591 -0.781574,-1.86334 -0.700673,0.16723 -1.453999,1.00259 -1.674059,1.85637 -0.220061,0.85378 -0.243538,0.39919 -0.05217,-1.0102 0.191368,-1.40939 0.82045,-2.91663 1.397962,-3.34943 0.77577,-0.58137 0.77545,-0.78691 -0.0013,-0.78691 -0.578186,0 -1.051246,-0.53347 -1.051246,-1.1855 0,-0.99265 0.295495,-1.08716 1.816296,-0.58094 1.207842,0.40205 2.010727,0.40892 2.396693,0.0204 0.319218,-0.32125 1.212578,-0.58408 1.985247,-0.58408 0.772668,0 1.195776,0.2104 0.94024,0.46756 -0.255535,0.25716 1.30005,0.39908 3.456855,0.31538 13.340489,-0.5177 18.56059,-0.54859 18.994057,-0.11237 0.270226,0.27195 2.046905,0.49846 3.948176,0.50337 1.90127,0.005 4.089038,0.28823 4.861706,0.62962 1.0755,0.47519 0.782643,0.53591 -1.249184,0.25899 -1.726384,-0.23529 -2.443609,-0.14996 -2.052003,0.24413 0.992229,0.99854 -4.346741,0.69896 -6.207318,-0.34829 -1.287108,-0.72447 -2.001956,-0.7958 -2.969621,-0.29632 -0.700947,0.36182 -1.545861,0.48905 -1.877586,0.28273 -0.331725,-0.20632 -1.481685,0.31954 -2.555467,1.16857 -1.636983,1.29436 -2.259677,1.44139 -3.855134,0.91032 -1.046542,-0.34835 -2.702628,-0.50328 -3.680191,-0.34428 -0.977564,0.159 -1.777388,0.008 -1.777388,-0.33597 0,-0.34379 -0.277314,-0.45258 -0.616253,-0.24178 -0.338939,0.21081 -1.110526,0.12815 -1.714636,-0.18368 -0.747262,-0.38573 -1.747841,-0.19064 -3.130018,0.61026 -2.266646,1.3134 -2.635346,2.63076 -0.860924,3.07608 0.644461,0.16175 0.328712,0.33289 -0.702426,0.38075 l -1.873135,0.0869 1.873135,0.55352 c 1.703748,0.50347 1.674779,0.52977 -0.32035,0.29082 -1.976183,-0.23666 -2.059873,-0.16572 -0.844783,0.71618 0.741787,0.53839 1.56811,1.37208 1.836277,1.85265 0.671463,1.2033 -0.908146,3.65271 -2.068073,3.20685 -0.998541,-0.38384 -1.346336,1.721362 -0.985912,5.967672 0.213411,2.51429 -1.19854,3.56788 -1.561295,1.16502 z m 1.004837,-8.883272 c -0.296501,-0.48057 -0.704729,-0.87376 -0.907173,-0.87376 -0.202445,0 -0.368082,0.39319 -0.368082,0.87376 0,0.48057 0.408228,0.87377 0.907173,0.87377 0.498946,0 0.664583,-0.3932 0.368082,-0.87377 z m 2.471015,-1.13064 c 0,-0.14128 -0.421455,-0.41887 -0.936567,-0.61688 -0.515113,-0.19801 -0.936568,-0.0824 -0.936568,0.25687 0,0.33929 0.421455,0.61689 0.936568,0.61689 0.515112,0 0.936567,-0.11559 0.936567,-0.25688 z m 14.985082,-8.75153 c 0,-0.14891 -0.948275,-0.58502 -2.107278,-0.96912 -1.910805,-0.63326 -1.987434,-0.60802 -0.821889,0.27076 1.196769,0.90232 2.929167,1.31536 2.929167,0.69836 z M 167.6686,38.012496 c 0.0771,-1.12133 0.0509,-2.30091 -0.0583,-2.62128 -0.10919,-0.32039 -0.11555,-1.20176 -0.0141,-1.95861 0.11644,-0.868542 -0.19368,-1.230722 -0.84082,-0.981972 -1.23259,0.4738 -2.77931,-1.83933 -2.18116,-3.26196 0.23203,-0.55186 1.22278,-1.45419 2.20164,-2.00516 1.9204,-1.08092 2.35637,-2.86085 0.84322,-3.4425 -0.54641,-0.21004 -0.93657,0.38229 -0.93657,1.42189 0,1.46221 -0.37807,1.78031 -2.10727,1.77299 -1.70403,-0.007 -1.83845,-0.11697 -0.70243,-0.57359 0.77266,-0.31056 1.00447,-0.56868 0.51511,-0.57359 -0.48936,-0.005 -0.38399,-0.32347 0.23414,-0.70793 1.56612,-0.97407 1.42193,-1.41294 -0.90775,-2.76286 -1.38218,-0.8009 -2.38276,-0.99599 -3.13002,-0.61026 -0.60411,0.31183 -1.37569,0.39449 -1.71463,0.18368 -0.33894,-0.2108 -0.61626,-0.0857 -0.61626,0.27803 0,0.36372 -0.64294,0.50786 -1.42875,0.32031 -1.17837,-0.28124 -1.2194,-0.50665 -0.23415,-1.28624 0.65704,-0.51988 -0.20745,-0.22714 -1.92109,0.65054 -3.80806,1.95038 -4.21248,1.96315 -5.74561,0.18143 -0.66935,-0.77789 -1.89957,-1.39615 -2.73382,-1.37391 -0.83424,0.0222 -1.93826,-0.0424 -2.45337,-0.14358 -0.51511,-0.10121 -2.06332,0.15678 -3.44046,0.57333 -2.90686,0.87924 -10.53991,0.32897 -8.20184,-0.59127 0.73702,-0.29009 2.89564,-0.53145 4.7969,-0.53636 1.90127,-0.005 3.67562,-0.22907 3.943,-0.49815 0.55359,-0.55711 11.93465,-0.42246 15.69297,0.18566 1.37534,0.22254 3.36516,0.11076 4.44869,-0.2499 1.51633,-0.50473 1.96362,-0.48297 1.97471,0.096 0.0103,0.5346 0.26345,0.50365 0.88565,-0.10826 0.47921,-0.4713 1.12501,-0.6991 1.43511,-0.50623 0.31008,0.19287 -0.0884,0.75634 -0.88565,1.25217 -1.83501,1.1413 -1.85313,1.62701 -0.0445,1.19537 0.77266,-0.18441 1.40485,-0.0296 1.40485,0.34391 0,0.37357 0.46645,0.49991 1.03655,0.28077 0.74783,-0.28747 0.73227,-0.51542 -0.056,-0.81837 -0.73025,-0.28071 -0.29765,-0.74383 1.30486,-1.3969 2.14869,-0.87563 2.39731,-0.88138 2.39731,-0.0553 0,0.50686 -0.42145,0.75956 -0.93656,0.56156 -0.51511,-0.19801 -0.93657,0.0332 -0.93657,0.51375 0,0.48057 0.38907,1.02332 0.8646,1.20611 0.86847,0.33384 0.60947,3.18028 -0.58555,6.43527 -0.88859,2.42029 -0.90868,2.86816 -0.14411,3.21209 1.42821,0.64247 1.57212,5.299492 0.212,6.860582 l -1.37443,1.57752 z M 154.0998,19.893454 c 0.37154,-0.37389 -0.28461,-0.32143 -1.58683,0.12689 -1.22117,0.42041 -2.56772,0.70219 -2.99234,0.62619 -0.42462,-0.076 -0.50441,0.13114 -0.1773,0.46033 0.65687,0.66104 3.65349,-0.10341 4.75647,-1.21341 z m 15.54038,9.96391 c 0,-0.80095 0.21259,-1.12862 0.4724,-0.72814 0.25981,0.40048 0.25981,1.0558 0,1.45628 -0.25981,0.40047 -0.4724,0.0729 -0.4724,-0.72814 z m 0.93656,-3.49506 c 0,-0.80095 0.21259,-1.12861 0.4724,-0.72813 0.25981,0.40047 0.25981,1.05579 0,1.45627 -0.25981,0.40047 -0.4724,0.0728 -0.4724,-0.72814 z m -72.793645,-2.56704 c -0.31117,-0.77111 -0.0569,-2.01622 0.56508,-2.76691 0.93472,-1.12818 0.91605,-1.23862 -0.10769,-0.63677 -0.68119,0.40047 -2.31324,0.72641 -3.626765,0.7243 l -2.388247,-0.004 2.809697,-1.15734 c 3.546715,-1.46092 4.932995,-1.45254 8.4291,0.051 l 2.8097,1.20833 -3.05604,-0.23864 c -2.61618,-0.20428 -2.97781,-0.0853 -2.51245,0.82662 0.64744,1.26874 -0.29269,3.39528 -1.501035,3.39528 -0.47058,0 -1.1102,-0.6309 -1.42137,-1.40201 z m -30.376647,-3.84056 c -1.712014,-0.68813 -0.233285,-0.68813 2.341418,0 1.23509,0.3301 1.394601,0.51153 0.468284,0.53265 -0.772668,0.0176 -2.037035,-0.22208 -2.809702,-0.53265 z m 61.345172,0 c 2.57471,-0.68813 4.05343,-0.68813 2.34142,0 -0.77267,0.31057 -2.03704,0.55025 -2.80971,0.53265 -0.92632,-0.0211 -0.7668,-0.20255 0.46829,-0.53265 z m -54.555058,-0.40154 c 0.901446,-0.14652 2.37654,-0.14652 3.277987,0 0.901447,0.14651 0.163899,0.26639 -1.638993,0.26639 -1.802892,0 -2.54044,-0.11988 -1.638994,-0.26639 z m 15.453368,0.0158 c 0.643889,-0.1616 1.697527,-0.1616 2.341415,0 0.643889,0.16159 0.11707,0.29381 -1.170707,0.29381 -1.287777,0 -1.814596,-0.13222 -1.170708,-0.29381 z m 16.85821,0 c 0.64388,-0.1616 1.69752,-0.1616 2.34141,0 0.6439,0.16159 0.11707,0.29381 -1.17071,0.29381 -1.28777,0 -1.81459,-0.13222 -1.1707,-0.29381 z m 14.05943,-0.0262 c 1.165,-0.13932 2.85083,-0.13403 3.74627,0.0118 0.89545,0.1458 -0.0578,0.2598 -2.1182,0.25333 -2.06045,-0.007 -2.79307,-0.12575 -1.62807,-0.26509 z"
       id="path462" /></g></svg>
